<svg id="Capa_1" enable-background="new 0 0 512 512" height="512" viewBox="0 0 512 512" width="512" xmlns="http://www.w3.org/2000/svg"><g><path d="m241 92h30v30h-30z"/><path d="m181 60h30v30h-30z"/><path d="m301 60h30v30h-30z"/><path d="m512 180v-15c0-90.981-74.019-165-165-165h-182c-90.981 0-165 74.019-165 165v15h30v32.58c-17.459 6.192-30 22.865-30 42.42 0 13.893 6.332 26.334 16.258 34.595-10.081 10.885-16.258 25.434-16.258 41.405 0 22.323 12.06 41.873 30 52.506v38.494h-30v15c0 41.355 33.645 75 75 75h362c41.355 0 75-33.645 75-75v-15h-30v-38.494c17.94-10.633 30-30.183 30-52.506 0-15.971-6.177-30.52-16.258-41.405 9.926-8.261 16.258-20.702 16.258-34.595 0-19.555-12.541-36.228-30-42.42v-32.58zm-347-150h182c69.369 0 126.686 52.595 134.172 120h-450.344c7.486-67.405 64.803-120 134.172-120zm287 150v30h-181v-30zm-211 0v30h-181v-30zm-27.42 242h-153.58v-30.025c.334.005.665.025 1 .025h150v15c0 5.258.915 10.305 2.58 15zm-2.58-60h-150c-17.093 0-31-13.907-31-31s13.907-31 31-31h150zm226 120h-362c-19.556 0-36.239-12.539-42.43-30h446.86c-6.191 17.461-22.874 30-42.43 30zm-138.58-60c1.665-4.695 2.58-9.742 2.58-15v-15h150c.335 0 .666-.02 1-.025v30.025zm152.58-60h-150v-62h150c17.093 0 31 13.907 31 31s-13.907 31-31 31zm16-92h-196v137c0 8.271-6.729 15-15 15s-15-6.729-15-15v-137h-196c-8.271 0-15-6.729-15-15s6.729-15 15-15h422c8.271 0 15 6.729 15 15s-6.729 15-15 15z"/></g></svg>